<svg width="26" height="22" viewBox="0 0 26 22" fill="none" xmlns="http://www.w3.org/2000/svg">
<path d="M20.3828 0.160156H5.61719C3.02834 0.160156 0.929688 2.25881 0.929688 4.84766C0.929688 7.4365 3.02834 9.53516 5.61719 9.53516H20.3828C22.9717 9.53516 25.0703 7.4365 25.0703 4.84766C25.0703 2.25881 22.9717 0.160156 20.3828 0.160156ZM8.13672 7.19141C6.84227 7.19141 5.79297 6.14211 5.79297 4.84766C5.79297 3.5532 6.84227 2.50391 8.13672 2.50391C9.43117 2.50391 10.4805 3.5532 10.4805 4.84766C10.4805 6.14211 9.43117 7.19141 8.13672 7.19141ZM20.3828 14.2227C21.9982 14.2227 23.3125 15.5369 23.3125 17.1523C23.3125 18.7678 21.9982 20.082 20.3828 20.082H5.61719C4.00176 20.082 2.6875 18.7678 2.6875 17.1523C2.6875 15.5369 4.00176 14.2227 5.61719 14.2227H20.3828ZM20.3828 12.4648H5.61719C3.02834 12.4648 0.929688 14.5634 0.929688 17.1523C0.929688 19.7411 3.02834 21.8398 5.61719 21.8398H20.3828C22.9717 21.8398 25.0703 19.7411 25.0703 17.1523C25.0703 14.5634 22.9717 12.4648 20.3828 12.4648ZM18.2148 14.8086C16.9204 14.8086 15.8711 15.8579 15.8711 17.1523C15.8711 18.4467 16.9204 19.4961 18.2148 19.4961C19.5093 19.4961 20.5586 18.4467 20.5586 17.1523C20.5586 15.8579 19.5093 14.8086 18.2148 14.8086Z" fill="black"/>
</svg>
