<svg width="124" height="20" viewBox="0 0 124 20" fill="none" xmlns="http://www.w3.org/2000/svg">
<path fill-rule="evenodd" clip-rule="evenodd" d="M58.9659 5.73934C58.9659 8.21174 58.7178 15.8763 58.7178 15.8763C58.7178 17.3593 59.214 18.0192 60.6192 18.0192V18.6791H55.0798V18.0192C56.485 18.0192 57.2293 17.3593 57.2293 15.8763L57.7254 3.34907C57.3126 2.35974 56.8988 2.03027 55.8241 1.94814V1.37134H60.0397L64.5043 13.0744L69.0503 1.37134H72.853V1.94814C71.7783 1.94814 71.1997 2.44281 71.1997 3.59641L71.6959 15.7111C71.6959 17.5245 72.0264 18.0192 73.514 18.0192V18.6791H67.1489V18.0192C68.3894 18.0192 68.9679 17.6076 68.8855 15.7111C68.8855 15.7111 68.6374 7.2224 68.5541 5.73934L65.4947 14.1459C65.0819 15.2164 64.6681 16.4531 64.3376 17.7719L63.3462 17.8549C63.0981 16.9477 62.4363 15.2995 62.4363 15.2995C62.4363 15.2995 59.8749 8.1296 58.9659 5.73934Z" fill="white"/>
<path fill-rule="evenodd" clip-rule="evenodd" d="M53.758 18.7612C53.4266 18.6791 53.0961 18.6791 52.7656 18.6791C52.1047 18.6791 50.9476 19.0085 49.5424 19.0085C44.1688 19.0085 40.2003 15.7951 40.2003 9.86C40.2003 4.83307 43.9207 0.958801 49.6238 0.958801C50.9466 0.958801 52.4342 1.20613 53.6746 1.7008C53.9227 1.45347 54.006 1.28827 54.2532 1.04093H54.7494C54.667 1.9472 54.3365 4.91427 54.3365 4.91427H53.8403C53.5099 3.18387 52.5999 2.03027 49.7072 2.03027C46.2358 2.03027 43.094 4.75 43.094 9.77693C43.094 15.4637 46.3173 17.9361 49.8729 17.9361C52.1871 17.9361 53.5932 16.6173 54.5022 14.9691L55.0808 15.2164L53.758 18.7612Z" fill="white"/>
<path fill-rule="evenodd" clip-rule="evenodd" d="M38.1333 4.58576H37.5547C37.4724 3.01962 36.9762 2.52496 35.7358 2.52496H33.3382V15.4647C33.3382 17.6076 33.752 18.0192 35.1563 18.0192V18.6791H28.956V18.0192C30.3612 18.0192 30.775 17.6076 30.775 15.3816V2.52496H28.3775C26.8066 2.52496 26.5585 2.93656 26.1456 4.58576H25.5671L25.9799 0.877625L26.3928 0.958824C26.5575 1.37136 26.889 1.37136 27.8804 1.37136H35.8987C37.3862 1.37136 37.7176 1.37136 38.0481 0.877625H38.5443L38.1333 4.58576Z" fill="white"/>
<path fill-rule="evenodd" clip-rule="evenodd" d="M20.6082 19.0907C19.4511 19.0907 18.5411 18.9255 17.8802 18.6791C17.2183 18.5139 16.7231 18.2675 16.475 18.1013C16.1436 18.4317 15.8964 18.8433 15.8964 18.8433L15.4003 18.6791L15.8131 14.8057L16.3917 14.8879C16.7221 16.7013 17.9626 18.0201 20.5249 18.0201C22.5086 18.0201 23.8314 16.3709 23.8314 14.5593C23.8314 13.0753 23.2529 12.3333 21.2691 10.8503C20.6072 10.4377 20.0287 10.1083 19.5335 9.69573C17.7145 8.54213 16.5574 7.22333 16.5574 5.0804C16.5574 2.608 18.6235 0.958801 21.3524 0.958801C22.9233 0.958801 23.9147 1.45347 24.2452 1.61867L24.8238 0.958801L25.2366 1.04187L24.8238 4.58573L24.2452 4.5036C24.2452 2.85533 23.2529 2.11333 21.5996 2.11333C20.0287 2.11333 18.8716 2.93747 18.8716 4.5036C18.8716 5.90453 19.9463 6.81173 21.1867 7.63493C21.8486 8.04653 22.3438 8.37694 22.84 8.7064C25.7337 10.7663 26.3946 12.0851 26.3946 14.0628C26.3946 16.9477 24.1628 19.0907 20.6082 19.0907Z" fill="white"/>
<path fill-rule="evenodd" clip-rule="evenodd" d="M11.1847 4.58574H10.5228C10.5228 3.10267 9.86094 2.52494 8.53907 2.52494H4.81873V9.03587H7.21626C8.45669 9.03587 8.70477 8.37694 8.86954 7.30547H9.44809V11.9208H8.86954C8.70477 10.6851 8.45669 10.1904 7.13388 10.1904H4.81873V15.712C4.81873 17.7728 5.31397 18.0201 6.63677 18.0201V18.68H0.355072V18.0201C1.92597 18.0201 2.17311 17.6085 2.17311 15.712V3.59734C2.17311 2.44374 1.67788 1.94907 0.355072 1.94907V1.37227H8.95286C10.4404 1.37227 10.7709 1.29014 11.0199 0.795471H11.5985L11.1847 4.58574Z" fill="white"/>
<path fill-rule="evenodd" clip-rule="evenodd" d="M100.382 5.57415V15.4647C100.382 17.6076 100.878 18.0192 102.201 18.0192V18.6791H92.4461V18.0192C93.1904 18.0192 93.8513 17.7719 93.8513 17.2772C93.8513 16.9478 93.7689 16.37 93.6032 15.7942L92.859 13.4039H87.4039C87.3215 13.7334 86.3292 16.4531 86.3292 17.1951C86.3292 17.855 87.0725 18.0192 87.5687 18.0192V18.6791H83.0226V18.0192C83.8493 18.0192 84.5102 17.9371 85.0888 16.2058L89.3053 2.77136C89.0572 2.19456 88.7267 2.03029 88.1482 1.94722V1.37042H91.8685L96.3331 15.4638C96.746 16.9468 97.1597 17.6888 97.8207 18.0183C98.8121 17.6879 99.0602 17.3584 99.0602 15.4638V3.59642C98.3159 2.60709 98.2335 1.94816 96.8283 1.94816V1.37136H101.045L107.988 13.1566V4.17322C107.988 2.35976 107.576 1.94816 106.17 1.94816V1.37136H115.429V1.94816C114.851 1.94816 114.354 2.19549 114.354 2.77229C114.354 3.18389 114.519 3.59642 114.685 4.09109L117.33 9.77789L119.894 4.25535C120.307 3.51429 120.389 3.10176 120.389 2.69016C120.389 2.19549 120.058 1.94816 119.314 1.94816V1.37136H123.695V1.94816C122.621 1.94816 121.96 2.93749 121.464 4.09109L118.075 11.0136V15.5459C118.075 17.5246 118.571 18.0183 119.894 18.0183V18.6782H113.611V18.0183C114.934 18.0183 115.43 17.5236 115.43 15.5459V11.6726L111.793 4.00709C111.131 2.52402 110.883 2.19456 110.47 1.94722C109.644 2.27669 109.396 2.85349 109.396 4.17229V16.8647C109.396 16.8647 109.478 17.854 109.561 19.0067L108.486 19.0898L100.382 5.57415ZM90.0477 4.75002L87.7335 12.2494H92.5285L90.0477 4.75002Z" fill="white"/>
<path fill-rule="evenodd" clip-rule="evenodd" d="M79.7975 12.2503C79.7975 12.2503 79.0542 12.2503 78.5581 12.2503V15.7941C78.5581 17.6076 79.0542 18.0192 80.4594 18.0192V18.6791H74.0944V18.0192C75.4172 18.0192 75.9124 17.5245 75.9124 15.7111V4.09107C75.9124 2.27761 75.4172 1.94814 74.0944 1.94814V1.37134H78.8895C83.5179 1.37134 86.2468 2.77227 86.2468 6.56347C86.2459 10.5189 82.9393 12.2503 79.7975 12.2503ZM78.9709 2.52494H78.5581V11.0136H79.3023C82.0303 11.0136 83.4355 9.77694 83.4355 6.64561C83.4355 3.51427 82.1941 2.52494 78.9709 2.52494Z" fill="white"/>
<path fill-rule="evenodd" clip-rule="evenodd" d="M50.9466 15.3825C47.8049 15.3825 45.6563 13.1565 45.6563 9.94307C45.6563 6.89293 47.8882 4.5036 50.9466 4.5036C53.9227 4.5036 56.1545 6.81173 56.1545 9.94307C56.1545 12.9923 53.8403 15.3825 50.9466 15.3825ZM50.9466 5.492C48.7972 5.492 48.0529 7.5528 48.0529 9.94307C48.0529 12.1681 48.7148 14.3941 50.9466 14.3941C53.0961 14.3941 53.757 12.1691 53.757 9.86093C53.758 7.63493 52.9304 5.492 50.9466 5.492Z" fill="white"/>
<path fill-rule="evenodd" clip-rule="evenodd" d="M14.5736 14.3932V13.8155C15.4003 13.8155 15.565 13.5681 15.565 13.3208C15.565 12.9913 15.4826 12.744 15.4003 12.4967C15.4003 12.4967 15.2346 11.8368 15.0689 11.3431H11.8447L11.5142 12.4145C11.4318 12.6609 11.3485 12.9083 11.3485 13.2387C11.3485 13.5681 11.6799 13.8155 12.1752 13.8155V14.3932H8.95099V13.8155C9.77763 13.8155 10.1081 13.5681 10.4386 12.6619L12.9185 5.24466C12.8361 4.91426 12.5871 4.66786 12.0918 4.66786V4.09106H14.7375C16.8869 10.3547 17.4655 12.0039 17.4655 12.0039C17.8783 13.4039 18.2921 13.8164 18.954 13.8164V14.3941H14.5736V14.3932ZM13.4165 6.39826L12.177 10.4368H14.7393L13.4165 6.39826Z" fill="white"/>
</svg>
