<svg width="114" height="30" viewBox="0 0 114 30" fill="none" xmlns="http://www.w3.org/2000/svg">
<path fill-rule="evenodd" clip-rule="evenodd" d="M69.4136 8.88892C67.5806 8.88892 66.1408 9.28092 64.7 10.064C64.7 5.88732 64.7 2.10359 64.8311 0.797852L56.0601 2.36399V3.14705L56.9766 3.27772C58.1553 3.53812 58.5485 4.19052 58.8096 5.75758C59.0718 8.88892 58.9407 25.5947 58.8096 28.3359C61.166 28.8595 63.6534 29.2505 66.1408 29.2505C73.0797 29.2505 77.2681 24.9432 77.2681 18.1569C77.2681 12.8052 73.8651 8.88892 69.4136 8.88892ZM66.4029 27.8141C65.8777 27.8141 65.2243 27.8141 64.8311 27.6844C64.7 25.8569 64.5699 18.1569 64.7 11.3707C65.4855 11.1093 66.0088 10.9787 66.6641 10.9787C69.5438 10.9787 71.1147 14.3713 71.1147 18.548C71.1156 23.7691 69.1515 27.8141 66.4029 27.8141Z" fill="white"/>
<path fill-rule="evenodd" clip-rule="evenodd" d="M23.0713 1.3205H0.03125V2.49463L1.34002 2.6253C3.04197 2.8857 3.69636 3.93009 3.95755 6.41089C4.35074 11.1084 4.21967 19.5933 3.95755 23.6384C3.69636 26.1182 3.04197 27.2933 1.34002 27.423L0.03125 27.6844V28.7288H14.8237V27.6844L13.2528 27.423C11.5508 27.2933 10.8955 26.1182 10.6353 23.6384C10.5033 21.9406 10.3731 19.2004 10.3731 15.8077L13.5149 15.9384C15.479 15.9384 16.3946 17.5045 16.7878 19.723H17.9655V10.4578H16.7878C16.3946 12.6764 15.479 14.2416 13.5149 14.2416L10.3731 14.3713C10.3731 9.93516 10.5042 5.7585 10.6353 3.27863H15.2159C18.7518 3.27863 20.5839 5.49623 21.8927 9.41249L23.2015 9.02143L23.0713 1.3205Z" fill="white"/>
<path fill-rule="evenodd" clip-rule="evenodd" d="M30.5336 8.62946C37.0793 8.62946 40.3521 13.0665 40.3521 18.9391C40.3521 24.5521 36.6861 29.2505 30.1404 29.2505C23.5947 29.2505 20.3228 24.8125 20.3228 18.9391C20.3228 13.3279 23.9879 8.62946 30.5336 8.62946ZM30.1404 9.93425C27.2607 9.93425 26.4753 13.8487 26.4753 18.9381C26.4753 23.8969 27.784 27.9439 30.4034 27.9439C33.4132 27.9439 34.1996 24.0276 34.1996 18.9381C34.1996 13.9793 32.8899 9.93425 30.1404 9.93425Z" fill="white"/>
<path fill-rule="evenodd" clip-rule="evenodd" d="M78.971 19.0697C78.971 13.7189 82.374 8.62854 89.0508 8.62854C94.5489 8.62854 97.1674 12.6745 97.1674 18.0253H84.9915C84.8614 22.8535 87.2177 26.3787 91.9314 26.3787C94.0256 26.3787 95.0722 25.8551 96.3819 24.9432L96.9052 25.5947C95.5955 27.4221 92.7159 29.2505 89.0508 29.2505C83.1585 29.2505 78.971 25.0748 78.971 19.0697ZM84.9915 16.5917L91.145 16.4601C91.145 13.8496 90.7518 9.93521 88.5265 9.93521C86.3012 9.93427 85.1226 13.5883 84.9915 16.5917Z" fill="white"/>
<path fill-rule="evenodd" clip-rule="evenodd" d="M112.744 9.67479C111.173 9.02052 109.079 8.62946 106.723 8.62946C101.879 8.62946 98.8683 11.4995 98.8683 14.894C98.8683 18.2876 101.093 19.7221 104.236 20.7675C107.508 21.9407 108.425 22.8544 108.425 24.4205C108.425 25.9876 107.247 27.4231 105.152 27.4231C102.665 27.4231 100.831 25.9876 99.3917 22.0723L98.4752 22.3336L98.6053 28.0764C100.176 28.7288 103.056 29.2515 105.545 29.2515C110.65 29.2515 113.923 26.64 113.923 22.5949C113.923 19.8537 112.482 18.2885 109.079 16.9819C105.413 15.5464 104.104 14.6345 104.104 12.9368C104.104 11.24 105.283 10.0649 106.854 10.0649C109.211 10.0649 110.782 11.5004 111.96 15.0237L112.876 14.7633L112.744 9.67479Z" fill="white"/>
<path fill-rule="evenodd" clip-rule="evenodd" d="M57.3698 9.15212C55.1445 7.84639 51.2173 8.49785 49.1221 13.1972L49.2532 8.62945L40.4813 10.3272V11.1093L41.3978 11.24C42.5764 11.3716 43.0988 12.0231 43.2308 13.7199C43.4929 16.8521 43.3619 22.3336 43.2308 25.0757C43.0997 26.6409 42.5764 27.424 41.3978 27.5547L40.4813 27.6853V28.7297H52.6562V27.6853L51.0853 27.5547C49.7765 27.424 49.3842 26.6409 49.2522 25.0757C48.9911 22.5949 48.9911 17.6361 49.1212 14.5039C49.7756 13.5901 52.6562 12.8061 55.2737 14.5039L57.3698 9.15212Z" fill="white"/>
</svg>
