<svg width="24" height="26" viewBox="0 0 24 26" fill="none" xmlns="http://www.w3.org/2000/svg">
<path d="M19.2763 7.57519L20.9464 5.91863C21.4864 6.56321 21.9578 7.26728 22.3497 8.01921L20.1941 8.95331C19.9295 8.46692 19.6224 8.00591 19.2763 7.57519ZM20.4602 17.3165C20.2282 17.8163 19.9514 18.2963 19.631 18.7507L21.3033 20.4307C21.8383 19.7246 22.2946 18.9558 22.6594 18.1371L20.4602 17.3165ZM21.3009 13.9838C21.2658 14.5536 21.1801 15.1136 21.0449 15.6585L23.2505 16.4814C23.4698 15.6799 23.6062 14.8443 23.6488 13.9838H21.3009ZM12.0072 18.6978L18.4312 12.2627H15.4918V0.94519H8.52262V12.2627H5.58332L12.0072 18.6978ZM18.4834 20.0896C16.7375 21.7809 14.444 22.711 12.0072 22.711C9.51989 22.711 7.18141 21.7424 5.42254 19.9835C3.66356 18.2247 2.69495 15.8862 2.69495 13.3987C2.69495 10.2346 4.26497 7.40954 6.76481 5.69978V2.98601C2.96067 4.90519 0.351196 8.84696 0.351196 13.3988C0.351196 19.8363 5.56979 25.0548 12.0072 25.0548C15.1695 25.0548 18.037 23.795 20.1369 21.7506L18.4834 20.0896ZM19.7195 4.65956C18.9748 4.00185 18.1453 3.43783 17.2496 2.98601V5.69972C17.5289 5.89073 17.796 6.09646 18.0514 6.31443L19.7195 4.65956ZM20.8837 10.5702C21.0531 11.1036 21.1756 11.6571 21.2467 12.2259H23.6045C23.5148 11.3284 23.3233 10.4609 23.0417 9.63511L20.8837 10.5702Z" fill="black"/>
</svg>
