<svg width="128" height="17" viewBox="0 0 128 17" fill="none" xmlns="http://www.w3.org/2000/svg">
<path d="M9.36495 4.5172V16.2585H5.06325V4.5172H0.716614V0.781067H13.7125V4.5172H9.36495Z" fill="white"/>
<path d="M23.7548 11.5928H16.9255C17.0584 12.8752 17.812 13.4492 18.8989 13.4492C19.9184 13.4492 20.7619 13.228 21.9153 12.6307L23.445 15.174C22.0042 16.014 20.5176 16.5003 18.6995 16.5003C15.1954 16.5003 13.266 14.0232 13.266 10.4635C13.266 6.46226 15.5278 4.40613 18.5881 4.40613C21.7823 4.40613 23.7782 6.50613 23.7782 10.8181C23.7782 11.1504 23.7782 11.3931 23.7548 11.5928ZM18.4777 7.34706C17.5677 7.34706 17.0584 7.9668 16.9255 9.11573H20.2526C20.0514 7.94346 19.6525 7.34706 18.4777 7.34706Z" fill="white"/>
<path d="M31.1814 16.5003C27.7672 16.5003 25.7264 14.334 25.7264 10.4205C25.7264 6.8608 27.5444 4.40613 31.2704 4.40613C33.4657 4.40613 34.7305 5.42346 35.7509 7.0596L33.0004 9.13813C32.4462 8.1208 32.068 7.63453 31.2048 7.63453C30.1835 7.63453 29.6742 8.65186 29.6742 10.4868C29.6742 12.3227 30.2284 13.2728 31.3153 13.2728C32.0689 13.2728 32.6016 12.8528 33.3337 11.7692L35.8614 13.7367C34.5086 15.7265 33.2438 16.5003 31.1814 16.5003Z" fill="white"/>
<path d="M44.7962 16.2576V9.66731C44.7962 8.16371 44.286 7.76611 43.4659 7.76611C42.6233 7.76611 42.1122 8.16371 42.1122 9.62345V16.2576H38.1204V1.73118L42.1122 0.138916V5.42345C42.8443 4.87091 43.6653 4.40611 45.0396 4.40611C47.5897 4.40611 48.8105 6.10851 48.8105 9.15958V16.2576H44.7962Z" fill="white"/>
<path d="M58.365 16.5002C53.7525 16.5002 51.2904 13.0954 51.2904 8.51837C51.2904 3.5437 54.2178 0.536499 58.3866 0.536499C62.2015 0.536499 63.7106 2.17263 64.7741 5.09117L60.8721 6.61717C60.317 5.17983 59.7843 4.27263 58.365 4.27263C56.5695 4.27263 55.7924 6.0637 55.7924 8.51837C55.7924 10.8844 56.5461 12.7632 58.409 12.7632C59.7609 12.7632 60.3385 12.0342 61.1801 10.5745L64.8171 12.4981C63.7761 14.5328 62.0461 16.5002 58.365 16.5002Z" fill="white"/>
<path d="M74.6376 9.02706C74.1283 8.47453 73.5516 8.05453 72.7755 8.05453C71.7991 8.05453 71.2 8.51839 71.2 9.93333V16.2576H67.2081V4.64973H71.2V5.48973C71.8871 4.82613 72.6632 4.40613 73.6846 4.40613C74.5271 4.40613 75.1038 4.60493 75.5691 4.8924L74.6376 9.02706Z" fill="white"/>
<path d="M84.1275 16.2576V15.482C83.417 16.0345 82.5754 16.5003 81.2226 16.5003C78.6725 16.5003 77.4526 14.7979 77.4526 11.7459V4.6488H81.4669V11.2381C81.4669 12.7408 81.9762 13.1393 82.7972 13.1393C83.6173 13.1393 84.1275 12.7408 84.1275 11.2811V4.6488H88.1418V16.2576H84.1275Z" fill="white"/>
<path d="M97.6973 16.2576V9.66733C97.6973 8.16373 97.1871 7.76613 96.367 7.76613C95.5235 7.76613 95.0133 8.16373 95.0133 9.62346V16.2576H91.0215V4.64973H95.0133V5.42346C95.7454 4.87093 96.5664 4.40613 97.9407 4.40613C100.492 4.40613 101.712 6.10853 101.712 9.15959V16.2576H97.6973Z" fill="white"/>
<path d="M109.491 16.5003C106.077 16.5003 104.036 14.334 104.036 10.4205C104.036 6.8608 105.855 4.40613 109.58 4.40613C111.776 4.40613 113.04 5.42346 114.061 7.0596L111.31 9.13813C110.756 8.1208 110.378 7.63453 109.515 7.63453C108.494 7.63453 107.984 8.65186 107.984 10.4868C107.984 12.3227 108.538 13.2728 109.625 13.2728C110.379 13.2728 110.911 12.8528 111.642 11.7692L114.17 13.7367C112.818 15.7265 111.554 16.5003 109.491 16.5003Z" fill="white"/>
<path d="M123.106 16.2576V9.66731C123.106 8.16371 122.596 7.76611 121.776 7.76611C120.932 7.76611 120.422 8.16371 120.422 9.62345V16.2576H116.43V1.73118L120.422 0.138916V5.42345C121.154 4.87091 121.975 4.40611 123.349 4.40611C125.9 4.40611 127.12 6.10851 127.12 9.15958V16.2576H123.106Z" fill="white"/>
</svg>
