<svg width="118" height="25" viewBox="0 0 118 25" fill="none" xmlns="http://www.w3.org/2000/svg">
<path d="M47.5311 24.669H70.9532V0.890503H47.5311V24.669ZM52.9029 4.67424H62.214C62.214 4.67424 66.2255 4.45957 66.2255 8.81637C66.2255 13.1722 63.7905 13.386 63.7905 13.386C63.7905 13.386 66.2255 13.5288 66.2255 16.885C66.2255 20.2413 66.2255 20.5988 66.2255 20.5988H63.0023V17.0988C63.0023 17.0988 63.0023 14.3865 61.1402 14.3865C59.2782 14.3865 56.055 14.4574 56.055 14.4574V20.6697H52.9038V4.67424H52.9029Z" fill="white"/>
<path d="M63.0023 9.38758C63.0023 7.10278 60.5673 7.46025 60.5673 7.46025H56.055V11.888C56.055 11.888 58.4909 11.8161 60.4962 11.8161C62.5015 11.8152 63.0023 11.3877 63.0023 9.38758Z" fill="white"/>
<path d="M30.4489 7.35198C30.4489 7.35198 34.1851 7.35198 34.3883 7.35198V18.0648C34.1851 18.0648 30.4489 18.0648 30.4489 18.0648V20.778H41.7662V18.0648C41.7662 18.0648 37.6723 18.0648 37.4683 18.0648V7.35198C37.6723 7.35198 41.7662 7.35198 41.7662 7.35198V4.63971H30.4489V7.35198Z" fill="white"/>
<path d="M0.687988 24.669H24.11V0.890503H0.687988V24.669ZM5.9165 4.7461L8.13709 16.9569L11.0018 4.7461L14.5115 4.81704L17.3771 17.1706L19.5265 4.7461H22.6056L19.3112 20.7416H15.2997L12.7215 9.10197L9.92799 20.8125H5.98858L2.69326 4.74517H5.9165V4.7461Z" fill="white"/>
<path d="M94.1589 0.890503V24.67H117.581V0.890503H94.1589ZM107.911 20.8853C102.039 20.8853 99.3884 20.9562 99.3884 20.9562V4.7461H106.336C106.336 4.7461 113.497 3.96024 113.497 10.3872V14.8858C113.498 14.8858 113.785 20.8853 107.911 20.8853Z" fill="white"/>
<path d="M107.554 7.38837H102.683V18.0993C102.683 18.0993 105.333 18.0993 107.768 18.0993C110.203 18.0993 110.274 14.9568 110.274 14.9568C110.274 14.9568 110.274 14.4574 110.274 10.8156C110.274 7.17371 107.554 7.38837 107.554 7.38837Z" fill="white"/>
<path d="M75.2502 7.31652H77.4708V18.0993H75.2502V20.7416H88.9304V15.5289H86.209V18.0993H80.4075V13.7444H84.7046V11.1012H80.4075V7.31652H85.9946V9.88786H88.9304V4.67426H75.2502V7.31652Z" fill="white"/>
</svg>
