<svg width="20" height="20" viewBox="0 0 20 20" fill="none" xmlns="http://www.w3.org/2000/svg">
<path d="M19.6576 3.57713C19.4756 1.87157 18.1285 0.524271 16.4227 0.342394C12.1451 -0.114131 7.85492 -0.114131 3.57742 0.342394C1.87164 0.524424 0.524445 1.87157 0.342407 3.57713C-0.114136 7.85445 -0.114136 12.1446 0.342407 16.4219C0.524445 18.1276 1.87164 19.4748 3.57727 19.6568C7.85477 20.1133 12.1451 20.1133 16.4227 19.6568C18.1285 19.4748 19.4756 18.1276 19.6576 16.4219C20.1141 12.1446 20.1141 7.85461 19.6576 3.57713Z" fill="url(#paint0_radial_0_167)"/>
<path d="M18.5699 4.30058C18.4085 2.78712 17.2131 1.59164 15.6994 1.43006C11.9037 1.0251 8.0966 1.0251 4.30083 1.43006C2.78731 1.59164 1.59178 2.78712 1.43019 4.30058C1.02522 8.0962 1.02522 11.9031 1.43019 15.6986C1.59178 17.2122 2.78731 18.4077 4.30083 18.5691C8.0966 18.9742 11.9037 18.9742 15.6993 18.5691C17.213 18.4077 18.4085 17.2122 18.5699 15.6986C18.9751 11.9031 18.9751 8.0962 18.5699 4.30058Z" fill="url(#paint1_linear_0_167)"/>
<path d="M0.299316 16.0065C0.313049 16.1447 0.32724 16.2829 0.342041 16.4212C0.524078 18.1267 1.87128 19.4739 3.57706 19.6559C7.85455 20.1124 12.1449 20.1124 16.4224 19.6559C18.1281 19.4739 19.4752 18.1267 19.6572 16.4212C19.672 16.2829 19.6862 16.1447 19.7001 16.0065H0.299316Z" fill="url(#paint2_linear_0_167)"/>
<path d="M19.6575 16.4227C19.9029 14.1244 20.0161 11.8224 19.9978 9.52071L15.4262 4.94936C14.8551 4.29738 14.0209 3.89044 13.0407 3.85519C11.0248 3.78257 9.00259 3.78623 6.98645 3.8555C5.31195 3.91318 4.14099 5.03862 3.8407 6.69276C3.78775 6.9848 3.75601 7.28066 3.71436 7.57483V12.4242C3.7374 12.5813 3.77127 12.7377 3.7818 12.8958C3.84894 13.9019 4.26245 14.7637 4.92453 15.3467L9.57663 19.9985C11.8597 20.0145 14.1428 19.901 16.4226 19.6576C18.1284 19.4756 19.4755 18.1285 19.6575 16.4227Z" fill="url(#paint3_linear_0_167)"/>
<path d="M19.6574 16.4211C19.4756 18.1265 18.1281 19.4739 16.4226 19.6558C14.1431 19.899 11.8594 20.0127 9.57672 19.9967L4.93164 15.3518C5.47012 15.8231 6.17203 16.1101 6.98654 16.1408C9.00223 16.2164 11.0249 16.2145 13.0406 16.1418C14.8637 16.0759 16.183 14.7266 16.2399 12.9036C16.3007 10.9679 16.3007 9.02724 16.2399 7.09159C16.214 6.25056 15.9187 5.51054 15.4292 4.95056L19.9979 9.51901C20.0159 11.8204 19.9026 14.1227 19.6574 16.4211Z" fill="url(#paint4_linear_0_167)"/>
<path d="M12.3602 7.83458C11.7746 7.19694 10.9343 6.79688 10.0003 6.79688C8.2312 6.79688 6.79688 8.23114 6.79688 10.0002C6.79688 10.9341 7.19696 11.7744 7.83463 12.36L15.2463 19.7714C15.6386 19.7372 16.0309 19.6992 16.4229 19.6574C18.1287 19.4754 19.4759 18.1282 19.6579 16.4225C19.6997 16.0305 19.7377 15.6382 19.7719 15.2459L12.3602 7.83458Z" fill="url(#paint5_linear_0_167)"/>
<path d="M19.9613 12.1538L13.9964 6.18926C13.8572 6.00662 13.6379 5.88806 13.3906 5.88806C12.9698 5.88806 12.6284 6.22923 12.6284 6.65021C12.6284 6.89754 12.747 7.1168 12.9296 7.25596L19.8547 14.1809C19.9017 13.5054 19.9372 12.8296 19.9613 12.1538Z" fill="url(#paint6_linear_0_167)"/>
<path d="M3.71436 7.57483C3.75601 7.28066 3.78775 6.9848 3.8407 6.69276C4.14084 5.03862 5.31195 3.91318 6.98645 3.8555C9.00259 3.78623 11.0248 3.78257 13.0407 3.85519C14.8632 3.9208 16.1831 5.27024 16.24 7.09329C16.3006 9.02909 16.3006 10.9696 16.24 12.9054C16.1831 14.7285 14.8636 16.0778 13.0408 16.1435C11.025 16.2163 9.00229 16.2181 6.9866 16.1425C5.16379 16.0739 3.90372 14.7215 3.7818 12.8957C3.77127 12.7377 3.7374 12.5812 3.71436 12.424C3.71436 10.8076 3.71436 9.19113 3.71436 7.57483ZM10.0016 15.0631C10.9241 15.0631 11.8476 15.0907 12.7689 15.0567C14.2135 15.0031 15.102 14.141 15.1357 12.6979C15.1775 10.8997 15.1775 9.09913 15.1357 7.3008C15.102 5.85798 14.2129 4.97576 12.7689 4.94509C10.9362 4.90633 9.10147 4.90664 7.26874 4.94509C5.83578 4.97515 4.94467 5.83952 4.90576 7.26647C4.85632 9.08738 4.85632 10.9115 4.90576 12.7324C4.94467 14.1592 5.83578 15.0036 7.26889 15.0567C8.17862 15.0906 9.09064 15.0631 10.0016 15.0631Z" fill="url(#paint7_linear_0_167)"/>
<path d="M3.71436 7.57483C3.75601 7.28066 3.78775 6.9848 3.8407 6.69276C4.14084 5.03862 5.31195 3.91318 6.98645 3.8555C9.00259 3.78623 11.0248 3.78257 13.0407 3.85519C14.8632 3.9208 16.1831 5.27024 16.24 7.09329C16.3006 9.02909 16.3006 10.9696 16.24 12.9054C16.1831 14.7285 14.8636 16.0778 13.0408 16.1435C11.025 16.2163 9.00229 16.2181 6.9866 16.1425C5.16379 16.0739 3.90372 14.7215 3.7818 12.8957C3.77127 12.7377 3.7374 12.5812 3.71436 12.424C3.71436 10.8076 3.71436 9.19113 3.71436 7.57483ZM10.0016 15.0631C10.9241 15.0631 11.8476 15.0907 12.7689 15.0567C14.2135 15.0031 15.102 14.141 15.1357 12.6979C15.1775 10.8997 15.1775 9.09913 15.1357 7.3008C15.102 5.85798 14.2129 4.97576 12.7689 4.94509C10.9362 4.90633 9.10147 4.90664 7.26874 4.94509C5.83578 4.97515 4.94467 5.83952 4.90576 7.26647C4.85632 9.08738 4.85632 10.9115 4.90576 12.7324C4.94467 14.1592 5.83578 15.0036 7.26889 15.0567C8.17862 15.0906 9.09064 15.0631 10.0016 15.0631Z" fill="white"/>
<path d="M10.0003 6.79626C8.2312 6.79626 6.79688 8.23038 6.79688 9.99941C6.79688 11.7686 8.2312 13.2027 10.0003 13.2027C11.7696 13.2027 13.2037 11.7686 13.2037 9.99941C13.2037 8.23038 11.7696 6.79626 10.0003 6.79626ZM10.0003 12.0999C8.84018 12.0999 7.89978 11.1595 7.89978 9.99941C7.89978 8.83933 8.84018 7.89897 10.0003 7.89897C11.1604 7.89897 12.1008 8.83933 12.1008 9.99941C12.1008 11.1595 11.1604 12.0999 10.0003 12.0999Z" fill="white"/>
<path d="M14.1526 6.6496C14.1526 7.07042 13.8114 7.41159 13.3906 7.41159C12.9698 7.41159 12.6284 7.07042 12.6284 6.6496C12.6284 6.22862 12.9698 5.88745 13.3906 5.88745C13.8114 5.88745 14.1526 6.22862 14.1526 6.6496Z" fill="white"/>
<defs>
<radialGradient id="paint0_radial_0_167" cx="0" cy="0" r="1" gradientUnits="userSpaceOnUse" gradientTransform="translate(4.09989 17.4777) scale(22.0565 22.0556)">
<stop stop-color="#FAE100"/>
<stop offset="0.0544" stop-color="#FADC04"/>
<stop offset="0.1167" stop-color="#FBCE0E"/>
<stop offset="0.1829" stop-color="#FCB720"/>
<stop offset="0.2514" stop-color="#FE9838"/>
<stop offset="0.3054" stop-color="#FF7950"/>
<stop offset="0.4922" stop-color="#FF1C74"/>
<stop offset="1" stop-color="#6C1CD1"/>
</radialGradient>
<linearGradient id="paint1_linear_0_167" x1="7.67095" y1="8.68954" x2="-26.2108" y2="-10.3697" gradientUnits="userSpaceOnUse">
<stop stop-color="#A1B5D8" stop-opacity="0"/>
<stop offset="0.3094" stop-color="#90A2BD" stop-opacity="0.309804"/>
<stop offset="0.7554" stop-color="#7C8B9C" stop-opacity="0.756863"/>
<stop offset="1" stop-color="#748290"/>
</linearGradient>
<linearGradient id="paint2_linear_0_167" x1="9.99965" y1="17.6533" x2="9.99965" y2="20.7707" gradientUnits="userSpaceOnUse">
<stop stop-color="#FAE100" stop-opacity="0"/>
<stop offset="0.3068" stop-color="#FCA800" stop-opacity="0.305882"/>
<stop offset="0.6275" stop-color="#FE7300" stop-opacity="0.627451"/>
<stop offset="0.8685" stop-color="#FF5200" stop-opacity="0.866667"/>
<stop offset="1" stop-color="#FF4500"/>
</linearGradient>
<linearGradient id="paint3_linear_0_167" x1="8.86211" y1="8.83438" x2="3.91263" y2="3.8847" gradientUnits="userSpaceOnUse">
<stop stop-color="#833AB4" stop-opacity="0"/>
<stop offset="1" stop-color="#833AB4"/>
</linearGradient>
<linearGradient id="paint4_linear_0_167" x1="13.7069" y1="18.2907" x2="11.2366" y2="6.64467" gradientUnits="userSpaceOnUse">
<stop stop-color="#833AB4" stop-opacity="0"/>
<stop offset="1" stop-color="#833AB4"/>
</linearGradient>
<linearGradient id="paint5_linear_0_167" x1="14.6474" y1="14.6471" x2="4.72496" y2="4.72424" gradientUnits="userSpaceOnUse">
<stop stop-color="#833AB4" stop-opacity="0"/>
<stop offset="1" stop-color="#833AB4"/>
</linearGradient>
<linearGradient id="paint6_linear_0_167" x1="15.3832" y1="8.64267" x2="12.102" y2="5.36139" gradientUnits="userSpaceOnUse">
<stop stop-color="#833AB4" stop-opacity="0"/>
<stop offset="1" stop-color="#833AB4"/>
</linearGradient>
<linearGradient id="paint7_linear_0_167" x1="13.9709" y1="6.05721" x2="5.8808" y2="14.1477" gradientUnits="userSpaceOnUse">
<stop stop-color="#833AB4"/>
<stop offset="0.0922" stop-color="#9C3495"/>
<stop offset="0.2927" stop-color="#DC2546"/>
<stop offset="0.392" stop-color="#FD1D1D"/>
<stop offset="0.5589" stop-color="#FC6831"/>
<stop offset="0.6887" stop-color="#FC9B40"/>
<stop offset="0.7521" stop-color="#FCAF45"/>
<stop offset="0.7806" stop-color="#FDB750"/>
<stop offset="0.8656" stop-color="#FECB6A"/>
<stop offset="0.9415" stop-color="#FFD87A"/>
<stop offset="1" stop-color="#FFDC80"/>
</linearGradient>
</defs>
</svg>
